<svg version="1.2" baseProfile="tiny-ps" xmlns="http://www.w3.org/2000/svg" viewBox="0 0 437 131" width="437" height="131">
	<title>logo-black-svg</title>
	<style>
		tspan { white-space:pre }
		.shp0 { fill: #212121 } 
	</style>
	<g id="Layer">
		<path id="Layer" class="shp0" d="M12.06 80.57C14.15 78.37 17.07 77.27 20.8 77.27C24.53 77.27 27.43 78.36 29.5 80.54C30.02 81.07 30.48 81.64 30.88 82.26C31.28 82.88 31.62 83.54 31.89 84.22C32.16 84.91 32.37 85.62 32.5 86.34C32.63 87.07 32.69 87.8 32.67 88.54C32.69 89.28 32.64 90.02 32.51 90.75C32.38 91.48 32.17 92.19 31.9 92.88C31.62 93.57 31.27 94.22 30.86 94.84C30.45 95.45 29.97 96.02 29.44 96.54C28.86 97.08 28.24 97.56 27.56 97.97C26.89 98.39 26.18 98.73 25.44 99C24.7 99.27 23.94 99.47 23.16 99.59C22.38 99.71 21.59 99.75 20.8 99.71C20.01 99.75 19.21 99.71 18.43 99.59C17.65 99.47 16.88 99.28 16.13 99C15.39 98.73 14.67 98.38 14 97.96C13.33 97.54 12.7 97.06 12.12 96.51C11.6 95.99 11.13 95.43 10.72 94.81C10.32 94.2 9.97 93.55 9.7 92.87C9.42 92.19 9.22 91.48 9.09 90.76C8.96 90.04 8.9 89.3 8.92 88.57C8.91 87.83 8.96 87.1 9.09 86.38C9.22 85.65 9.42 84.94 9.69 84.26C9.96 83.57 10.3 82.92 10.69 82.3C11.09 81.68 11.55 81.1 12.06 80.57L12.06 80.57Z" />
		<path id="Layer" class="shp0" d="M122.22 31.22C122.67 31.29 123.12 31.36 123.56 31.44C124.01 31.52 124.46 31.61 124.9 31.7C125.34 31.8 125.78 31.9 126.22 32.01C126.67 32.12 127.1 32.24 127.54 32.36L125 49.4C124.43 49.27 123.86 49.14 123.28 49.02C122.71 48.91 122.13 48.8 121.56 48.7C120.98 48.6 120.4 48.51 119.82 48.42C119.24 48.34 118.66 48.27 118.08 48.2C117.52 48.14 116.96 48.08 116.4 48.03C115.84 47.98 115.28 47.94 114.72 47.91C114.15 47.87 113.59 47.85 113.03 47.83C112.47 47.81 111.9 47.8 111.34 47.8C110.84 47.8 110.33 47.8 109.83 47.83C109.33 47.85 108.83 47.88 108.32 47.93C107.82 47.98 107.32 48.05 106.83 48.12C106.33 48.2 105.83 48.29 105.34 48.39C104.92 48.48 104.51 48.58 104.1 48.7C103.69 48.81 103.29 48.94 102.89 49.09C102.49 49.24 102.1 49.4 101.71 49.57C101.32 49.75 100.94 49.94 100.57 50.14C100.16 50.36 99.76 50.59 99.38 50.85C98.99 51.1 98.62 51.37 98.26 51.66C97.9 51.95 97.55 52.26 97.22 52.58C96.89 52.9 96.57 53.24 96.27 53.59C95.96 53.96 95.66 54.34 95.38 54.73C95.09 55.12 94.82 55.52 94.57 55.93C94.32 56.34 94.09 56.76 93.87 57.19C93.65 57.62 93.45 58.06 93.27 58.51L93.27 98.51L76.23 98.51L76.23 31.93L92.16 31.93L92.84 41.34L93 42.82C93.64 41.91 94.32 41.05 95.05 40.21C95.78 39.38 96.56 38.59 97.38 37.85C98.19 37.1 99.05 36.4 99.94 35.74C100.83 35.09 101.76 34.48 102.72 33.93C103.66 33.4 104.63 32.92 105.63 32.52C106.62 32.11 107.65 31.77 108.69 31.5C109.73 31.22 110.79 31.02 111.86 30.89C112.93 30.75 114.01 30.69 115.09 30.7C115.69 30.7 116.28 30.71 116.88 30.73C117.47 30.75 118.07 30.78 118.66 30.82C119.26 30.87 119.85 30.92 120.45 30.99C121.04 31.05 121.63 31.13 122.22 31.22L122.22 31.22Z" />
		<path id="Layer" class="shp0" d="M185.31 89.15C184.79 89.94 184.22 90.71 183.61 91.44C183.01 92.17 182.36 92.87 181.67 93.53C180.99 94.19 180.27 94.81 179.51 95.39C178.76 95.97 177.97 96.51 177.16 97C176.38 97.47 175.56 97.88 174.72 98.24C173.88 98.6 173.02 98.89 172.14 99.13C171.26 99.37 170.36 99.55 169.46 99.67C168.55 99.78 167.64 99.84 166.73 99.83C165.93 99.84 165.12 99.81 164.32 99.75C163.52 99.69 162.72 99.59 161.92 99.46C161.13 99.32 160.34 99.15 159.56 98.95C158.79 98.74 158.02 98.5 157.26 98.23C156.55 97.97 155.86 97.66 155.19 97.32C154.51 96.97 153.86 96.58 153.24 96.15C152.62 95.72 152.02 95.25 151.46 94.75C150.9 94.24 150.37 93.7 149.87 93.13C149.32 92.49 148.81 91.82 148.33 91.13C147.85 90.43 147.41 89.71 147.01 88.97C146.61 88.23 146.25 87.47 145.93 86.69C145.61 85.91 145.34 85.11 145.1 84.3C144.8 83.25 144.53 82.18 144.31 81.11C144.09 80.03 143.91 78.95 143.77 77.86C143.62 76.78 143.52 75.68 143.46 74.59C143.41 73.49 143.39 72.4 143.41 71.3L143.41 31.93L160.52 31.93L160.52 71.43C160.51 72 160.52 72.57 160.53 73.15C160.55 73.72 160.59 74.29 160.64 74.86C160.68 75.43 160.75 76 160.82 76.57C160.9 77.13 160.99 77.7 161.1 78.26C161.17 78.66 161.27 79.05 161.38 79.44C161.5 79.83 161.64 80.21 161.8 80.58C161.96 80.95 162.14 81.32 162.34 81.67C162.54 82.02 162.76 82.36 163 82.69C163.21 82.97 163.44 83.24 163.69 83.49C163.95 83.74 164.22 83.97 164.5 84.18C164.79 84.39 165.09 84.57 165.4 84.74C165.72 84.9 166.04 85.04 166.38 85.15C166.79 85.28 167.21 85.4 167.63 85.49C168.05 85.59 168.48 85.67 168.9 85.73C169.33 85.8 169.76 85.84 170.19 85.87C170.63 85.89 171.06 85.9 171.49 85.89C171.9 85.89 172.31 85.89 172.72 85.86C173.13 85.84 173.54 85.81 173.95 85.76C174.36 85.71 174.77 85.66 175.17 85.58C175.58 85.51 175.98 85.43 176.38 85.33C176.72 85.25 177.05 85.15 177.38 85.05C177.72 84.94 178.04 84.82 178.36 84.68C178.68 84.55 179 84.4 179.31 84.24C179.62 84.08 179.92 83.91 180.22 83.73C180.46 83.58 180.69 83.42 180.91 83.25C181.14 83.08 181.35 82.9 181.57 82.72C181.78 82.53 181.98 82.34 182.18 82.14C182.38 81.94 182.57 81.73 182.75 81.52C182.94 81.3 183.12 81.07 183.29 80.84C183.46 80.61 183.63 80.37 183.79 80.13C183.95 79.89 184.1 79.64 184.24 79.39C184.38 79.14 184.52 78.89 184.65 78.63L184.65 31.93L201.8 31.93L201.8 98.5L186.29 98.5L185.31 89.15Z" />
		<path id="Layer" class="shp0" d="M224.72 125.08C223.51 124.87 222.16 124.57 220.72 124.16L222.81 111.16C223.5 111.16 224.4 111.16 225.48 111.25C226.56 111.34 227.48 111.35 228.1 111.35C228.42 111.35 228.75 111.33 229.07 111.28C229.39 111.22 229.7 111.14 230.01 111.04C230.32 110.93 230.61 110.8 230.9 110.64C231.18 110.48 231.45 110.3 231.7 110.09C231.95 109.89 232.19 109.68 232.43 109.47C232.67 109.25 232.9 109.03 233.12 108.8C233.34 108.57 233.56 108.34 233.77 108.1C233.98 107.85 234.18 107.6 234.37 107.35C235.11 106.35 235.66 105.63 236 105.13C236.11 104.96 236.23 104.79 236.34 104.62C236.45 104.45 236.56 104.28 236.66 104.1C236.77 103.93 236.87 103.75 236.97 103.57C237.07 103.4 237.17 103.22 237.27 103.04L241.2 95.72L213 31.93L231.7 31.93L246.96 70.93L248.8 77.7L251.32 71.05L266.52 31.92L285.41 31.92L251.63 108.46C251.42 108.93 251.2 109.4 250.98 109.86C250.75 110.32 250.52 110.78 250.28 111.24C250.04 111.69 249.8 112.15 249.55 112.6C249.29 113.04 249.04 113.49 248.77 113.93C248.47 114.43 248.15 114.93 247.82 115.41C247.48 115.89 247.13 116.36 246.76 116.82C246.39 117.28 246.01 117.73 245.61 118.16C245.21 118.59 244.8 119.01 244.37 119.41C243.9 119.85 243.41 120.27 242.9 120.67C242.4 121.07 241.87 121.45 241.33 121.8C240.8 122.16 240.24 122.49 239.68 122.8C239.11 123.11 238.53 123.39 237.94 123.65C237.24 123.95 236.52 124.22 235.79 124.44C235.05 124.67 234.31 124.85 233.56 125C232.81 125.14 232.05 125.25 231.28 125.31C230.52 125.38 229.76 125.4 228.99 125.38C228.63 125.38 228.28 125.38 227.92 125.37C227.56 125.36 227.21 125.34 226.85 125.32C226.49 125.29 226.14 125.26 225.78 125.22C225.43 125.18 225.07 125.13 224.72 125.08L224.72 125.08Z" />
		<path id="Layer" class="shp0" d="M334.87 31.93L334.87 84.6L352.87 84.6L352.87 98.5L298.64 98.5L298.64 84.6L317.59 84.6L317.59 45.9L298.64 45.9L298.64 31.9L334.87 31.93ZM317.06 11.23C317.17 10.96 317.3 10.69 317.44 10.43C317.58 10.16 317.74 9.91 317.91 9.66C318.07 9.42 318.25 9.18 318.45 8.96C318.64 8.73 318.84 8.51 319.06 8.31C319.29 8.11 319.52 7.92 319.77 7.74C320.01 7.56 320.27 7.39 320.53 7.24C320.79 7.08 321.06 6.94 321.33 6.81C321.6 6.68 321.88 6.56 322.17 6.46C322.49 6.34 322.81 6.24 323.14 6.16C323.47 6.07 323.8 6 324.14 5.94C324.47 5.88 324.81 5.84 325.15 5.82C325.49 5.79 325.83 5.78 326.17 5.78C326.83 5.75 327.48 5.78 328.13 5.87C328.78 5.97 329.42 6.13 330.04 6.34C330.66 6.56 331.25 6.84 331.82 7.18C332.38 7.51 332.91 7.9 333.4 8.34C333.84 8.76 334.23 9.22 334.58 9.73C334.92 10.23 335.21 10.77 335.44 11.33C335.66 11.89 335.83 12.48 335.94 13.08C336.05 13.67 336.09 14.28 336.07 14.89C336.09 15.5 336.05 16.11 335.94 16.7C335.83 17.3 335.66 17.89 335.44 18.45C335.21 19.01 334.92 19.55 334.58 20.05C334.23 20.56 333.84 21.02 333.4 21.44C332.91 21.88 332.39 22.26 331.82 22.6C331.26 22.93 330.67 23.21 330.05 23.43C329.44 23.65 328.8 23.81 328.15 23.9C327.51 24 326.85 24.03 326.2 24C325.86 24 325.52 23.99 325.18 23.96C324.84 23.94 324.5 23.9 324.17 23.84C323.83 23.78 323.5 23.71 323.17 23.62C322.84 23.54 322.52 23.44 322.2 23.32C321.91 23.22 321.63 23.1 321.35 22.96C321.08 22.83 320.81 22.68 320.55 22.52C320.29 22.36 320.03 22.19 319.79 22C319.55 21.82 319.31 21.62 319.09 21.41C318.87 21.21 318.67 21 318.47 20.78C318.28 20.56 318.1 20.33 317.93 20.09C317.76 19.85 317.61 19.6 317.47 19.34C317.33 19.09 317.2 18.82 317.09 18.55C316.86 17.97 316.68 17.37 316.56 16.75C316.44 16.14 316.38 15.52 316.38 14.89C316.38 14.26 316.44 13.64 316.56 13.03C316.68 12.41 316.86 11.81 317.09 11.23L317.06 11.23Z" />
		<path id="Layer" class="shp0" d="M369.7 31.93L385.2 31.93L386.25 41.16C386.46 40.86 386.68 40.56 386.9 40.27C387.12 39.98 387.35 39.69 387.59 39.41C387.82 39.12 388.07 38.85 388.32 38.58C388.56 38.31 388.82 38.04 389.08 37.78C389.33 37.53 389.59 37.28 389.85 37.03C390.11 36.79 390.38 36.55 390.65 36.32C390.92 36.09 391.2 35.86 391.48 35.64C391.76 35.42 392.05 35.21 392.34 35C392.83 34.65 393.34 34.32 393.86 34.01C394.37 33.7 394.9 33.41 395.44 33.15C395.98 32.88 396.54 32.63 397.1 32.41C397.66 32.18 398.22 31.98 398.8 31.8C399.4 31.61 400.01 31.45 400.62 31.31C401.24 31.17 401.85 31.05 402.48 30.96C403.1 30.86 403.73 30.8 404.35 30.75C404.98 30.71 405.61 30.69 406.24 30.69C407.02 30.68 407.81 30.7 408.59 30.76C409.37 30.82 410.15 30.91 410.92 31.03C411.69 31.16 412.46 31.32 413.22 31.5C413.98 31.69 414.73 31.92 415.47 32.17C416.16 32.41 416.83 32.69 417.48 33.01C418.13 33.32 418.77 33.68 419.38 34.07C419.99 34.47 420.58 34.9 421.14 35.36C421.7 35.82 422.23 36.31 422.73 36.84C423.26 37.44 423.77 38.07 424.23 38.72C424.7 39.38 425.13 40.06 425.53 40.76C425.92 41.46 426.28 42.18 426.6 42.92C426.91 43.66 427.19 44.41 427.43 45.18C427.73 46.18 428 47.19 428.22 48.2C428.45 49.22 428.63 50.25 428.77 51.28C428.92 52.31 429.02 53.35 429.08 54.39C429.14 55.43 429.15 56.48 429.13 57.52L429.13 98.52L412 98.52L412 57.77C412.02 57.22 412.01 56.67 411.98 56.13C411.95 55.58 411.9 55.03 411.82 54.49C411.75 53.94 411.65 53.4 411.53 52.87C411.41 52.33 411.27 51.8 411.11 51.28C410.89 50.53 410.56 49.81 410.15 49.15C409.74 48.48 409.24 47.88 408.66 47.34C408.09 46.81 407.45 46.36 406.76 45.99C406.06 45.63 405.32 45.36 404.56 45.19C404.13 45.09 403.69 45 403.25 44.92C402.82 44.85 402.37 44.79 401.93 44.74C401.49 44.69 401.05 44.66 400.6 44.63C400.16 44.61 399.71 44.6 399.27 44.61C398.89 44.61 398.51 44.61 398.13 44.64C397.75 44.66 397.37 44.69 396.99 44.74C396.61 44.78 396.24 44.84 395.86 44.91C395.49 44.98 395.12 45.06 394.75 45.16C394.42 45.24 394.1 45.34 393.78 45.45C393.47 45.57 393.15 45.69 392.85 45.83C392.54 45.97 392.24 46.12 391.95 46.29C391.65 46.45 391.37 46.63 391.09 46.82C390.87 46.95 390.66 47.09 390.46 47.24C390.25 47.38 390.05 47.54 389.86 47.7C389.66 47.86 389.47 48.02 389.29 48.19C389.1 48.37 388.92 48.55 388.75 48.73C388.57 48.92 388.4 49.11 388.23 49.31C388.06 49.51 387.89 49.71 387.74 49.91C387.58 50.12 387.42 50.33 387.27 50.54C387.12 50.75 386.98 50.97 386.84 51.19L386.84 98.5L369.7 98.5L369.7 31.93Z" />
	</g>
</svg>